<svg id="svg" xmlns="http://www.w3.org/2000/svg" xmlns:xlink="http://www.w3.org/1999/xlink" width="400" height="400" viewBox="0, 0, 400,400"><g id="svgg"><path id="path0" d="M175.000 1.183 C 19.925 20.341,-54.126 204.007,44.027 326.031 C 138.897 443.974,328.258 416.319,385.434 276.172 C 443.286 134.365,326.999 -17.596,175.000 1.183 M217.989 28.124 C 362.544 45.164,424.473 218.384,322.826 321.364 C 220.586 424.945,45.270 363.449,28.124 217.989 C 15.501 110.901,110.901 15.501,217.989 28.124 M169.672 101.314 C 164.299 103.961,161.610 110.120,162.848 116.943 C 163.327 119.585,167.909 124.450,203.367 159.965 L 243.346 200.007 203.740 239.652 C 163.667 279.765,162.490 281.116,162.513 286.965 C 162.552 297.042,171.728 302.297,183.257 298.847 C 187.070 297.706,273.867 212.450,276.481 207.278 C 278.196 203.886,277.539 197.482,275.090 193.708 C 272.142 189.166,185.523 102.896,182.265 101.257 C 179.062 99.647,173.000 99.674,169.672 101.314 " stroke="none" fill="#ffffff" fill-rule="evenodd"></path></g></svg>