<svg id="svg" xmlns="http://www.w3.org/2000/svg" xmlns:xlink="http://www.w3.org/1999/xlink" width="400" height="400" viewBox="0, 0, 400,400"><g id="svgg"><path id="path0" d="M176.953 0.908 C 31.618 17.275,-47.650 182.476,30.313 306.519 C 113.400 438.715,310.899 428.625,379.645 288.672 C 449.398 146.671,334.250 -16.805,176.953 0.908 M152.646 22.623 C 157.113 24.321,157.944 30.585,154.104 33.606 C 150.507 36.435,145.937 35.259,144.167 31.048 C 141.858 25.556,146.979 20.468,152.646 22.623 M132.873 31.971 C 137.850 36.949,135.888 40.259,124.782 45.624 C 90.335 62.263,63.109 89.334,46.061 123.897 C 39.601 136.993,36.881 139.139,31.806 135.147 C 28.239 132.341,28.385 129.938,32.675 120.843 C 50.227 83.633,80.042 53.161,117.022 34.638 C 128.222 29.028,129.683 28.782,132.873 31.971 M221.094 66.687 C 310.750 81.857,360.757 176.777,321.785 257.813 C 276.042 352.925,145.529 362.095,87.161 274.296 C 32.929 192.719,84.129 79.148,180.859 66.455 C 184.297 66.004,188.164 65.485,189.453 65.301 C 193.904 64.666,214.474 65.567,221.094 66.687 M189.844 78.647 C 179.286 79.695,164.024 82.992,164.095 84.210 C 164.225 86.449,189.112 137.065,189.975 136.848 C 191.184 136.545,207.491 136.586,209.687 136.898 C 211.628 137.174,236.806 84.613,235.207 83.625 C 229.981 80.395,202.551 77.385,189.844 78.647 M143.412 92.246 C 137.106 95.504,128.125 101.267,128.125 102.055 C 128.125 103.200,164.274 154.297,165.085 154.297 C 166.648 154.297,178.125 147.405,178.125 146.466 C 178.125 144.594,151.650 89.442,150.659 89.249 C 150.082 89.136,146.821 90.485,143.412 92.246 M247.708 90.820 C 247.328 91.787,241.360 104.508,234.446 119.090 C 227.532 133.671,221.875 146.001,221.875 146.489 C 221.875 147.758,235.126 155.038,235.917 154.204 C 237.038 153.020,271.264 103.567,271.651 102.570 C 272.239 101.057,252.495 89.078,249.395 89.066 C 248.847 89.064,248.088 89.854,247.708 90.820 M111.673 116.189 C 100.033 128.632,89.490 146.445,84.495 162.109 C 81.091 172.784,80.982 173.437,82.602 173.438 C 83.362 173.438,96.465 174.493,111.719 175.781 C 126.973 177.070,139.669 178.124,139.933 178.125 C 140.197 178.125,141.029 176.510,141.783 174.537 C 142.537 172.563,144.926 168.299,147.092 165.060 C 150.624 159.778,150.926 159.001,150.016 157.516 C 146.641 152.004,117.709 110.938,117.202 110.938 C 116.863 110.938,114.375 113.301,111.673 116.189 M265.708 134.775 C 256.571 147.886,249.211 158.872,249.353 159.189 C 249.495 159.506,251.260 162.257,253.276 165.302 C 255.292 168.347,257.546 172.390,258.285 174.286 C 259.024 176.183,259.698 177.832,259.783 177.950 C 259.973 178.216,318.265 173.361,318.598 173.051 C 319.942 171.803,311.582 149.702,306.182 140.225 C 300.085 129.527,285.263 110.938,282.829 110.938 C 282.549 110.938,274.845 121.664,265.708 134.775 M193.266 152.190 C 192.105 155.267,166.245 170.313,162.118 170.313 C 159.676 170.313,159.070 170.739,157.105 173.838 C 152.894 180.478,152.647 181.701,154.767 185.402 C 157.621 190.383,157.606 209.643,154.745 214.638 L 152.849 217.949 154.745 222.010 C 158.560 230.185,160.231 231.788,165.363 232.199 C 172.843 232.798,188.442 242.385,190.663 247.748 L 191.596 250.000 198.923 250.000 C 204.670 250.000,206.250 249.765,206.250 248.910 C 206.250 245.868,233.280 229.688,238.361 229.688 C 241.169 229.688,241.340 229.518,244.240 223.885 L 247.227 218.083 245.293 214.705 C 242.380 209.618,242.356 190.424,245.255 185.362 L 247.151 182.051 245.255 177.990 C 241.440 169.815,239.769 168.212,234.637 167.801 C 227.480 167.228,213.422 158.859,209.654 152.930 L 207.793 150.000 200.943 150.000 C 194.156 150.000,194.085 150.020,193.266 152.190 M211.117 174.412 C 229.219 182.700,233.626 206.074,219.669 219.774 C 205.793 233.395,183.475 229.444,174.805 211.831 C 163.605 189.081,188.076 163.864,211.117 174.412 M195.043 186.296 C 182.704 190.695,182.110 207.925,194.108 213.375 C 206.213 218.873,218.873 206.213,213.375 194.108 C 210.122 186.947,202.422 183.665,195.043 186.296 M78.582 194.052 C 77.950 202.658,78.727 213.272,79.991 213.302 C 80.468 213.314,94.834 212.180,111.914 210.784 L 142.969 208.244 142.969 200.231 C 142.969 192.548,142.896 192.202,141.211 191.856 C 139.747 191.555,81.080 186.646,79.599 186.701 C 79.336 186.711,78.878 190.019,78.582 194.052 M286.328 189.471 C 270.430 190.878,257.322 192.064,257.199 192.108 C 257.077 192.152,257.077 195.789,257.199 200.192 L 257.422 208.196 287.109 210.697 C 303.438 212.073,317.732 213.217,318.875 213.240 C 321.396 213.290,322.483 205.080,321.507 193.359 L 320.953 186.719 318.094 186.816 C 316.521 186.870,302.227 188.065,286.328 189.471 M112.109 224.262 C 98.789 225.459,86.369 226.466,84.508 226.500 L 81.126 226.563 81.672 229.102 C 84.549 242.489,93.496 261.230,103.024 273.828 C 106.976 279.054,116.332 289.063,117.264 289.063 C 117.841 289.063,149.821 243.525,150.537 241.685 C 150.728 241.193,149.359 238.557,147.493 235.825 C 145.628 233.094,143.232 228.844,142.168 226.381 C 140.523 222.571,139.943 221.915,138.281 221.994 C 137.207 222.045,125.430 223.065,112.109 224.262 M257.913 226.125 C 256.894 228.509,254.521 232.756,252.640 235.561 C 250.758 238.367,249.219 240.861,249.219 241.104 C 249.219 241.966,282.189 289.063,282.792 289.063 C 285.144 289.063,299.450 271.189,305.268 260.982 C 310.978 250.964,319.922 228.059,318.564 226.933 C 318.452 226.839,306.934 225.833,292.969 224.697 C 279.004 223.560,265.820 222.441,263.672 222.210 L 259.766 221.789 257.913 226.125 M146.931 270.477 C 137.321 284.318,129.423 296.157,129.378 296.786 C 129.303 297.847,149.294 310.089,151.179 310.136 C 151.955 310.156,177.529 256.557,177.950 254.030 C 178.129 252.956,166.580 245.313,164.778 245.313 C 164.571 245.313,156.540 256.637,146.931 270.477 M228.327 249.046 C 224.786 251.074,221.883 253.086,221.877 253.516 C 221.868 254.144,248.154 310.700,248.863 311.576 C 249.411 312.253,265.797 303.019,269.860 299.743 L 272.141 297.904 253.876 271.608 C 243.830 257.146,235.421 245.322,235.188 245.335 C 234.956 245.347,231.868 247.017,228.327 249.046 M176.257 289.705 C 169.514 304.069,164.152 315.975,164.340 316.163 C 170.258 322.081,212.956 322.951,231.836 317.538 C 236.909 316.084,237.972 319.759,223.735 289.513 L 211.532 263.589 200.023 263.589 L 188.515 263.589 176.257 289.705 M368.810 265.565 C 372.035 268.789,371.766 270.240,365.683 282.476 C 347.456 319.137,318.888 347.693,282.558 365.566 C 255.944 378.658,245.781 380.117,245.781 370.843 C 245.781 366.759,247.549 365.367,256.872 362.109 C 299.822 347.101,334.915 315.859,354.498 275.199 C 360.321 263.109,363.927 260.682,368.810 265.565 " stroke="none" fill="#ffffff" fill-rule="evenodd"></path></g></svg>